Coordinates
version=1
nRows=9
nColumns=24
inDegrees=yes

Units are S.I. units (second, meters, Newtons, ...)
Angles are in degrees.

endheader
time	pelvis_tilt	pelvis_list	pelvis_rotation	pelvis_tx	pelvis_ty	pelvis_tz	hip_flexion_r	hip_adduction_r	hip_rotation_r	knee_angle_r	ankle_angle_r	subtalar_angle_r	mtp_angle_r	hip_flexion_l	hip_adduction_l	hip_rotation_l	knee_angle_l	ankle_angle_l	subtalar_angle_l	mtp_angle_l	lumbar_extension	lumbar_bending	lumbar_rotation
      4.82000000	     -0.22226088	     -3.01797002	      3.59929241	      1.18887286	      0.95048455	     -0.14165569	     -2.30824774	      8.62601978	     -0.36814699	     -8.12069448	     14.81707285	     -5.64433605	      0.00000000	     30.17701869	     -4.60541993	     -9.08715546	    -43.17494757	      6.65220914	     -8.16485034	      0.00000000	    -26.74324595	      1.77018094	      2.52725446
      4.83000000	     -0.24590084	     -3.26595328	      3.20343587	      1.20099253	      0.94925805	     -0.14152531	     -3.50032028	      8.89530117	     -0.09103779	     -7.35483540	     15.07987836	     -5.41952271	      0.00000000	     30.10775533	     -4.69830268	     -9.68078002	    -38.94398864	      6.85835053	     -7.31018725	      0.00000000	    -26.80107470	      1.84224164	      2.99087569
      4.84000000	     -0.27124886	     -3.57549951	      2.79454680	      1.21324110	      0.94777015	     -0.14143569	     -4.69731992	      9.20902295	      0.20875218	     -6.60827544	     15.34182440	     -5.17214583	      0.00000000	     29.89138794	     -4.82901155	    -10.26258490	    -34.47208757	      6.95032775	     -6.33346663	      0.00000000	    -26.84115445	      1.98278986	      3.47812323
      4.85000000	     -0.26656673	     -3.94122115	      2.37093289	      1.22563591	      0.94607910	     -0.14138251	     -5.93961260	      9.56041147	      0.53853934	     -5.87417773	     15.58165109	     -4.91485592	      0.00000000	     29.51200285	     -4.99172471	    -10.82846946	    -29.82114337	      6.91988808	     -5.27854570	      0.00000000	    -26.89721266	      2.18212833	      4.00437850
      4.86000000	     -0.29215446	     -4.36039534	      1.94217857	      1.23819677	      0.94411037	     -0.14135133	     -7.16488826	      9.94249393	      0.91202364	     -5.15689744	     15.82495859	     -4.61104472	      0.00000000	     29.08082017	     -5.18443929	    -11.37407316	    -25.11159156	      6.75248665	     -4.15303210	      0.00000000	    -26.89253559	      2.43675094	      4.54468435
      4.87000000	     -0.14206190	     -4.81566699	      1.51661378	      1.25087426	      0.94218613	     -0.14140623	     -8.58441701	     10.34213580	      1.28291014	     -4.46199053	     15.99108949	     -4.36414936	      0.00000000	     28.39029175	     -5.37275749	    -11.76995201	    -20.40588914	      6.47844025	     -3.21450803	      0.00000000	    -27.09968353	      2.73325495	      5.13704036
      4.88000000	     -0.02976402	     -5.33114896	      1.10542773	      1.26364020	      0.94001793	     -0.14152031	     -9.95153502	     10.77380467	      1.67997443	     -3.82979088	     16.17449595	     -4.03144108	      0.00000000	     27.75883851	     -5.59466335	    -11.98306806	    -15.92180304	      6.08564116	     -2.43911306	      0.00000000	    -27.25808332	      3.10089186	      5.73960920
      4.89000000	      0.10687767	     -5.87568337	      0.73007965	      1.27650208	      0.93773378	     -0.14172017	    -11.32143624	     11.21227885	      2.04680416	     -3.27443258	     16.35593998	     -3.64012032	      0.00000000	     27.13959536	     -5.82083748	    -11.92043783	    -11.78221659	      5.63280215	     -1.99259349	      0.00000000	    -27.44573497	      3.51069832	      6.33886743
      4.90000000	      0.25031306	     -6.42209555	      0.38696520	      1.28943215	      0.93537795	     -0.14196959	    -12.64558881	     11.63392865	      2.35561802	     -2.84344146	     16.54491461	     -3.18208113	      0.00000000	     26.57917577	     -6.04823149	    -11.54314799	     -8.13556213	      5.18332049	     -1.93617751	      0.00000000	    -27.65133546	      3.92318239	      6.91924116
